<?xml version="1.0" encoding="UTF-8" standalone="no"?>
<!DOCTYPE svg PUBLIC "-//W3C//DTD SVG 1.1//EN" "http://www.w3.org/Graphics/SVG/1.1/DTD/svg11.dtd">
<svg width="100%" height="100%" viewBox="0 0 2481 3508" version="1.1" xmlns="http://www.w3.org/2000/svg" xmlns:xlink="http://www.w3.org/1999/xlink" xml:space="preserve" xmlns:serif="http://www.serif.com/" style="fill-rule:evenodd;clip-rule:evenodd;stroke-linecap:round;stroke-linejoin:round;">
    <g id="syn6803_midpoint_ALL_parsimony.svg" transform="matrix(4.16667,0,0,4.16667,1614.37,2149.07)">
        <g transform="matrix(1,0,0,1,-173.871,-144.507)">
            <rect x="0" y="0" width="347.743" height="289.015" style="fill:white;fill-rule:nonzero;"/>
            <g id="e6d39768-082e-4704-adfc-6b0dfc40d22d" transform="matrix(1,0,0,1,12,5.03)">
                <path d="M0,113.162L0,94.362C0,75.563 0,75.563 9.346,75.563L18.692,75.563" style="fill:none;fill-rule:nonzero;stroke:black;stroke-width:1px;"/>
            </g>
            <g id="b9518f45-c2f7-4260-ab36-a4435094c1ec" transform="matrix(1,0,0,1,12,5.03)">
                <path d="M18.692,75.563L18.692,61.031C18.692,46.5 18.692,46.5 37.385,46.5L56.077,46.5" style="fill:none;fill-rule:nonzero;stroke:black;stroke-width:1px;"/>
            </g>
            <g id="_8b2752a8-ae6e-4e72-a6db-7ddba1eaae20" serif:id="8b2752a8-ae6e-4e72-a6db-7ddba1eaae20" transform="matrix(1,0,0,1,12,5.03)">
                <path d="M56.077,46.5L56.077,34.875C56.077,23.25 56.077,23.25 74.769,23.25L93.462,23.25" style="fill:none;fill-rule:nonzero;stroke:black;stroke-width:1px;"/>
            </g>
            <g id="f2829d26-908f-41bb-a116-7243819f64a8" transform="matrix(1,0,0,1,12,5.03)">
                <path d="M93.462,23.25L93.462,17.438C93.462,11.625 93.462,11.625 112.154,11.625L130.846,11.625" style="fill:none;fill-rule:nonzero;stroke:black;stroke-width:1px;"/>
            </g>
            <g id="c688993a-294f-4137-aafa-35988058b0a5" transform="matrix(1,0,0,1,12,5.03)">
                <path d="M93.462,23.25L93.462,29.063C93.462,34.875 93.462,34.875 112.154,34.875L130.846,34.875" style="fill:none;fill-rule:nonzero;stroke:black;stroke-width:1px;"/>
            </g>
            <g id="_752c0633-c158-41ed-9ebf-bea265f9a812" serif:id="752c0633-c158-41ed-9ebf-bea265f9a812" transform="matrix(1,0,0,1,12,5.03)">
                <path d="M56.077,46.5L56.077,58.125C56.077,69.75 56.077,69.75 74.769,69.75L93.462,69.75" style="fill:none;fill-rule:nonzero;stroke:black;stroke-width:1px;"/>
            </g>
            <g id="_0e99b660-51a6-437d-8341-78a7a1885c30" serif:id="0e99b660-51a6-437d-8341-78a7a1885c30" transform="matrix(1,0,0,1,12,5.03)">
                <path d="M93.462,69.75L93.462,63.938C93.462,58.125 93.462,58.125 112.154,58.125L130.846,58.125" style="fill:none;fill-rule:nonzero;stroke:black;stroke-width:1px;"/>
            </g>
            <g id="c8dddb73-91d2-4e1c-9593-7c9d7b71adf6" transform="matrix(1,0,0,1,12,5.03)">
                <path d="M93.462,69.75L93.462,75.563C93.462,81.375 93.462,81.375 112.154,81.375L130.846,81.375" style="fill:none;fill-rule:nonzero;stroke:black;stroke-width:1px;"/>
            </g>
            <g id="e8eaa1b2-284d-4329-9028-d13458ebd091" transform="matrix(1,0,0,1,12,5.03)">
                <path d="M18.692,75.563L18.692,90.094C18.692,104.625 18.692,104.625 37.385,104.625L56.077,104.625" style="fill:none;fill-rule:nonzero;stroke:black;stroke-width:1px;"/>
            </g>
            <g id="_17ec8b9c-c194-4be9-a792-810ebb11afe1" serif:id="17ec8b9c-c194-4be9-a792-810ebb11afe1" transform="matrix(1,0,0,1,12,5.03)">
                <path d="M0,113.162L0,131.962C0,150.762 0,150.762 9.346,150.762L18.692,150.762" style="fill:none;fill-rule:nonzero;stroke:black;stroke-width:1px;"/>
            </g>
            <g id="_97f0d148-dd69-42d2-af87-ad2e0fb31fa3" serif:id="97f0d148-dd69-42d2-af87-ad2e0fb31fa3" transform="matrix(1,0,0,1,12,5.03)">
                <path d="M18.692,150.762L18.692,139.318C18.692,127.875 18.692,127.875 37.385,127.875L56.077,127.875" style="fill:none;fill-rule:nonzero;stroke:black;stroke-width:1px;"/>
            </g>
            <g id="_5c780b69-e815-4835-8853-4d05e862257a" serif:id="5c780b69-e815-4835-8853-4d05e862257a" transform="matrix(1,0,0,1,12,5.03)">
                <path d="M18.692,150.762L18.692,162.205C18.692,173.648 18.692,173.648 37.385,173.648L56.077,173.648" style="fill:none;fill-rule:nonzero;stroke:black;stroke-width:1px;"/>
            </g>
            <g id="_5844db75-866b-4855-89c2-b3966cb3c197" serif:id="5844db75-866b-4855-89c2-b3966cb3c197" transform="matrix(1,0,0,1,12,5.03)">
                <path d="M56.077,173.648L56.077,162.387C56.077,151.125 56.077,151.125 74.769,151.125L93.462,151.125" style="fill:none;fill-rule:nonzero;stroke:black;stroke-width:1px;"/>
            </g>
            <g id="bb41d4e2-f452-4321-8c69-c205c0941dcf" transform="matrix(1,0,0,1,12,5.03)">
                <path d="M56.077,173.648L56.077,184.91C56.077,196.172 56.077,196.172 74.769,196.172L93.462,196.172" style="fill:none;fill-rule:nonzero;stroke:black;stroke-width:1px;"/>
            </g>
            <g id="c74c3075-bca0-4536-b111-c7550f824a10" transform="matrix(1,0,0,1,12,5.03)">
                <path d="M93.462,196.172L93.462,185.273C93.462,174.375 93.462,174.375 112.154,174.375L130.846,174.375" style="fill:none;fill-rule:nonzero;stroke:black;stroke-width:1px;"/>
            </g>
            <g id="a1f7247f-7e6d-4376-8a0c-97914328ead2" transform="matrix(1,0,0,1,12,5.03)">
                <path d="M93.462,196.172L93.462,207.07C93.462,217.969 93.462,217.969 112.154,217.969L130.846,217.969" style="fill:none;fill-rule:nonzero;stroke:black;stroke-width:1px;"/>
            </g>
            <g id="_926b1f4d-d7b0-4afc-901e-3625e4a68236" serif:id="926b1f4d-d7b0-4afc-901e-3625e4a68236" transform="matrix(1,0,0,1,12,5.03)">
                <path d="M130.846,217.969L130.846,207.797C130.846,197.625 130.846,197.625 149.538,197.625L168.231,197.625" style="fill:none;fill-rule:nonzero;stroke:black;stroke-width:1px;"/>
            </g>
            <g id="_7d3867f2-4822-4813-b0a1-316e0ce24374" serif:id="7d3867f2-4822-4813-b0a1-316e0ce24374" transform="matrix(1,0,0,1,12,5.03)">
                <path d="M168.231,197.625L205.615,197.625" style="fill:none;fill-rule:nonzero;stroke:black;stroke-width:1px;"/>
            </g>
            <g id="_4e28df45-42a3-4c3e-8159-35c0c5068a76" serif:id="4e28df45-42a3-4c3e-8159-35c0c5068a76" transform="matrix(1,0,0,1,12,5.03)">
                <path d="M130.846,217.969L130.846,228.141C130.846,238.313 130.846,238.313 149.538,238.313L168.231,238.313" style="fill:none;fill-rule:nonzero;stroke:black;stroke-width:1px;"/>
            </g>
            <g id="d7fa9438-8872-4c5f-b3f9-c2d241c1d018" transform="matrix(1,0,0,1,12,5.03)">
                <path d="M168.231,238.313L168.231,229.594C168.231,220.875 168.231,220.875 186.923,220.875L205.615,220.875" style="fill:none;fill-rule:nonzero;stroke:black;stroke-width:1px;"/>
            </g>
            <g id="_8247882b-11a5-4c41-9c67-01481d7d5ec9" serif:id="8247882b-11a5-4c41-9c67-01481d7d5ec9" transform="matrix(1,0,0,1,12,5.03)">
                <path d="M168.231,238.313L168.231,247.031C168.231,255.75 168.231,255.75 186.923,255.75L205.615,255.75" style="fill:none;fill-rule:nonzero;stroke:black;stroke-width:1px;"/>
            </g>
            <g id="c8137157-da2c-4752-9e62-325d5741842d" transform="matrix(0.330709,0,0,1,149.616,5.03)">
                <path d="M205.615,255.75L205.615,249.938C205.615,244.125 205.615,244.125 224.308,244.125L243,244.125" style="fill:none;fill-rule:nonzero;stroke:black;stroke-width:1px;"/>
            </g>
            <g id="_81bddfc2-49ea-4939-acdf-1b7a15894e2a" serif:id="81bddfc2-49ea-4939-acdf-1b7a15894e2a" transform="matrix(0.320048,0,0,1,151.809,5.03)">
                <path d="M205.615,255.75L205.615,261.563C205.615,267.375 205.615,267.375 224.308,267.375L243,267.375" style="fill:none;fill-rule:nonzero;stroke:black;stroke-width:1px;"/>
            </g>
            <g id="f2829d26-908f-41bb-a116-7243819f64a81" serif:id="f2829d26-908f-41bb-a116-7243819f64a8" transform="matrix(1,0,0,1,147.836,19.24)">
                <g transform="matrix(10,0,0,10,116.538,0)">
                </g>
                <text x="0px" y="0px" style="font-family:'Helvetica';font-size:10px;">PCC-N <tspan x="34.268px 39.268px 44.829px " y="0px 0px 0px ">Tok</tspan>yo (AP012277)</text>
            </g>
            <g id="c688993a-294f-4137-aafa-35988058b0a51" serif:id="c688993a-294f-4137-aafa-35988058b0a5" transform="matrix(1,0,0,1,147.836,42.49)">
                <g transform="matrix(10,0,0,10,115.811,0)">
                </g>
                <text x="0px" y="0px" style="font-family:'Helvetica';font-size:10px;">PCC-P<tspan x="30.938px 33.54px 38.54px 44.102px " y="0px 0px 0px 0px "> Tok</tspan>yo (AP012278)</text>
            </g>
            <g id="_0e99b660-51a6-437d-8341-78a7a1885c301" serif:id="0e99b660-51a6-437d-8341-78a7a1885c30" transform="matrix(1,0,0,1,147.346,65.655)">
                <g transform="matrix(10,0,0,10,128.926,0)">
                </g>
                <text x="0px" y="0px" style="font-family:'Helvetica';font-size:10px;">PCC-M Moscow (CP003265)</text>
            </g>
            <g id="c8dddb73-91d2-4e1c-9593-7c9d7b71adf61" serif:id="c8dddb73-91d2-4e1c-9593-7c9d7b71adf6" transform="matrix(1,0,0,1,147.026,88.99)">
                <g transform="matrix(10,0,0,10,135.601,0)">
                </g>
                <text x="0px" y="0px" style="font-family:'Helvetica';font-size:10px;">PCC-M Freiburg (NC_020286)</text>
            </g>
            <g id="e8eaa1b2-284d-4329-9028-d13458ebd0911" serif:id="e8eaa1b2-284d-4329-9028-d13458ebd091" transform="matrix(1,0,0,1,73.0669,112.24)">
                <g transform="matrix(10,0,0,10,149.907,0)">
                </g>
                <text x="0px" y="0px" style="font-family:'Helvetica';font-size:10px;">PCC 6803 Leipzig (ASM1<tspan x="113.208px 118.77px " y="0px 0px ">13</tspan>9205)</text>
            </g>
            <g id="_97f0d148-dd69-42d2-af87-ad2e0fb31fa31" serif:id="97f0d148-dd69-42d2-af87-ad2e0fb31fa3" transform="matrix(1,0,0,1,72.2569,135.405)">
                <g transform="matrix(10,0,0,10,55.4004,0)">
                </g>
                <g transform="matrix(10,0,0,10,58.1787,0)">
                </g>
                <g transform="matrix(10,0,0,10,258.662,0)">
                </g>
                <text x="0px" y="0px" style="font-family:'Helvetica';font-size:10px;">GT<tspan x="13.711px 16.489px " y="0px 0px "> K</tspan>azusa, ﬁrst cyanobacterium sequenced (NC_00091<tspan x="249.771px 255.332px " y="0px 0px ">1)</tspan></text>
                <rect x="55.4" y="0.757" width="141.187" height="0.493"/>
            </g>
            <g id="_5844db75-866b-4855-89c2-b3966cb3c1971" serif:id="5844db75-866b-4855-89c2-b3966cb3c197" transform="matrix(1,0,0,1,110.452,158.655)">
                <g transform="matrix(10,0,0,10,112.275,0)">
                </g>
                <text x="0px" y="0px" style="font-family:'Helvetica';font-size:10px;">GT<tspan x="13.34px 16.67px " y="0px 0px ">-S</tspan> Omata (AP012205)</text>
            </g>
            <g id="c74c3075-bca0-4536-b111-c7550f824a101" serif:id="c74c3075-bca0-4536-b111-c7550f824a10" transform="matrix(1,0,0,1,147.346,181.99)">
                <g transform="matrix(10,0,0,10,135.635,0)">
                </g>
                <text x="0px" y="0px" style="font-family:'Helvetica';font-size:10px;">GT<tspan x="13.34px 16.67px " y="0px 0px ">-G</tspan> Guangzhou (CP012832)</text>
            </g>
            <g id="_7d3867f2-4822-4813-b0a1-316e0ce243741" serif:id="7d3867f2-4822-4813-b0a1-316e0ce24374" transform="matrix(1,0,0,1,222.115,205.285)">
                <g transform="matrix(10,0,0,10,107.1,0)">
                </g>
                <text x="0px" y="0px" style="font-family:'Helvetica';font-size:10px;">GT<tspan x="13.34px 16.67px 22.603px 25.205px 30.947px 36.509px " y="0px 0px 0px 0px 0px 0px ">-T Tur</tspan>ku (CP094998)</text>
            </g>
            <g id="d7fa9438-8872-4c5f-b3f9-c2d241c1d0181" serif:id="d7fa9438-8872-4c5f-b3f9-c2d241c1d018" transform="matrix(1,0,0,1,222.115,228.535)">
                <g transform="matrix(10,0,0,10,118.774,0)">
                </g>
                <text x="0px" y="0px" style="font-family:'Helvetica';font-size:10px;">GT<tspan x="13.34px 16.67px 23.164px 25.942px " y="0px 0px 0px 0px ">-P S</tspan>t.Louis (CP073017)</text>
            </g>
            <g id="c8137157-da2c-4752-9e62-325d5741842d1" serif:id="c8137157-da2c-4752-9e62-325d5741842d" transform="matrix(1,0,0,1,231.582,252.302)">
                <g transform="matrix(10,0,0,10,83.916,0)">
                </g>
                <text x="0px" y="0px" style="font-family:'Helvetica';font-size:10px;">Cambridge (Howe)</text>
            </g>
            <g id="_81bddfc2-49ea-4939-acdf-1b7a15894e2a1" serif:id="81bddfc2-49ea-4939-acdf-1b7a15894e2a" transform="matrix(1,0,0,1,231.308,275.089)">
                <g transform="matrix(10,0,0,10,113.389,0)">
                </g>
                <text x="0px" y="0px" style="font-family:'Helvetica';font-size:10px;">London (Nixon-Thomson)</text>
            </g>
            <g id="e6d39768-082e-4704-adfc-6b0dfc40d22d1" serif:id="e6d39768-082e-4704-adfc-6b0dfc40d22d" transform="matrix(1,0,0,1,35.3023,84.0375)">
                <text x="0px" y="0px" style="font-family:'Helvetica';font-size:10px;">0.95</text>
            </g>
            <g id="_8b2752a8-ae6e-4e72-a6db-7ddba1eaae201" serif:id="8b2752a8-ae6e-4e72-a6db-7ddba1eaae20" transform="matrix(1,0,0,1,110.072,31.725)">
                <text x="0px" y="0px" style="font-family:'Helvetica';font-size:10px;">0.90</text>
            </g>
            <g id="a1f7247f-7e6d-4376-8a0c-97914328ead21" serif:id="a1f7247f-7e6d-4376-8a0c-97914328ead2" transform="matrix(1,0,0,1,147.456,226.444)">
                <text x="0px" y="0px" style="font-family:'Helvetica';font-size:10px;">0.88</text>
            </g>
            <g id="_4e28df45-42a3-4c3e-8159-35c0c5068a761" serif:id="4e28df45-42a3-4c3e-8159-35c0c5068a76" transform="matrix(1,0,0,1,184.841,246.788)">
                <text x="0px" y="0px" style="font-family:'Helvetica';font-size:10px;">0.90</text>
            </g>
        </g>
    </g>
    <g transform="matrix(0.36161,0,0,0.419703,1722.92,1872.04)">
        <rect x="174.019" y="1578.94" width="1540.04" height="471.253" style="fill:rgb(141,233,113);fill-opacity:0.22;stroke:black;stroke-width:5.32px;stroke-miterlimit:1.5;"/>
    </g>
    <g transform="matrix(0.709783,0,0,1.01591,867.734,-32.7979)">
        <rect x="174.019" y="1578.94" width="1540.04" height="471.253" style="fill:rgb(0,175,219);fill-opacity:0;stroke:black;stroke-width:2.38px;stroke-miterlimit:1.5;stroke-dasharray:4.75,4.75,4.75,4.75,4.75,4.75;"/>
    </g>
    <g transform="matrix(0.895477,0,0,1.4697,838.681,-254.14)">
        <rect x="174.019" y="1578.94" width="1540.04" height="471.253" style="fill:rgb(0,175,219);fill-opacity:0;stroke:black;stroke-width:1.71px;stroke-miterlimit:1.5;stroke-dasharray:3.42,3.42,3.42,3.42,3.42,3.42;"/>
    </g>
    <g transform="matrix(1,0,0,1,1755.32,1511.86)">
        <g transform="matrix(54.1667,0,0,54.1667,316.06,38.9852)">
        </g>
        <text x="0px" y="38.985px" style="font-family:'Helvetica-Bold', 'Helvetica';font-weight:700;font-size:54.167px;">PCC lineage</text>
    </g>
    <g transform="matrix(1,0,0,1,2107.42,2013.43)">
        <g transform="matrix(50,0,0,50,255.615,35.791)">
        </g>
        <text x="0px" y="35.791px" style="font-family:'Arial-BoldMT', 'Arial', sans-serif;font-weight:700;font-size:50px;">GT lineage</text>
    </g>
    <g transform="matrix(1,0,0,1,683.343,2078.61)">
        <g transform="matrix(41.6667,0,0,41.6667,237.773,29.8462)">
        </g>
        <text x="0px" y="29.846px" style="font-family:'ArialMT', 'Arial', sans-serif;font-size:41.667px;">A<tspan x="24.699px 50.151px " y="29.846px 29.846px ">TC</tspan>C 27184</text>
    </g>
    <g transform="matrix(0.750103,-7.63241e-17,-1.62054e-15,-2.51312,561.44,7181.71)">
        <rect x="142.203" y="2043.12" width="360.011" height="0.23" style="fill-opacity:0;stroke:black;stroke-width:1.91px;stroke-miterlimit:1.5;stroke-dasharray:3.82,5.73,3.82,5.73,5.73,5.73;"/>
    </g>
    <g transform="matrix(1,0,0,1,728.328,2001.69)">
        <g transform="matrix(41.6667,0,0,41.6667,192.24,29.8462)">
        </g>
        <text x="0px" y="29.846px" style="font-family:'ArialMT', 'Arial', sans-serif;font-size:41.667px;">PCC 6803</text>
    </g>
    <g transform="matrix(1,0,0,1,100.459,1986.12)">
        <text x="35.757px" y="29.846px" style="font-family:'ArialMT', 'Arial', sans-serif;font-size:41.667px;">Isolated from a freshwater</text>
        <text x="23.377px" y="72.876px" style="font-family:'ArialMT', 'Arial', sans-serif;font-size:41.667px;">pond in Berkeley<tspan x="330.669px 342.245px " y="72.876px 72.876px ">, </tspan>California</text>
        <g transform="matrix(41.6667,0,0,41.6667,487.356,115.906)">
        </g>
        <text x="65.848px" y="115.906px" style="font-family:'ArialMT', 'Arial', sans-serif;font-size:41.667px;">by R. Kunisawa (1968)</text>
    </g>
    <g transform="matrix(1.1668,0,0,1.02474,50.2782,-58.6628)">
        <path d="M524.606,2011.68L524.606,2109.89C524.606,2137 505.281,2159 481.478,2159L79.594,2159C55.791,2159 36.467,2137 36.467,2109.89L36.467,2011.68C36.467,1984.58 55.791,1962.58 79.594,1962.58L481.478,1962.58C505.281,1962.58 524.606,1984.58 524.606,2011.68Z" style="fill:rgb(255,233,0);fill-opacity:0.21;stroke:black;stroke-width:3.04px;stroke-miterlimit:1.5;stroke-dasharray:6.07,6.07,6.07,6.07,6.07,6.07;"/>
    </g>
</svg>
